# xmcd CD database file generated by Grip 2.92
# 
# Track frame offsets:
#       150
#       26509
#       53737
#       72297
#       95212
#       109308
#       130190
#       153905
#       173248
#       192870
#       208712
#       226070
# 
# Disc length: 3348 seconds
# 
# Revision: 3
# Processed by: cddbd v1.4b41PL1 Copyright (c) Steve Scherf et al.
# Submitted via: Grip 2.92
# 
DISCID=a10d120c
DTITLE=Freakwater - end time
DYEAR=1900
DGENRE=
TTITLE0=Good For Nothing
TTITLE1=Cloak Of Frogs
TTITLE2=Sick, Sick, Sick
TTITLE3=Just Like You
TTITLE4=Cheap Watch
TTITLE5=My History
TTITLE6=When The Leaves Begin To Fall
TTITLE7=Written In Gold
TTITLE8=Dog Gone Wrong
TTITLE9=Queen Bee
TTITLE10=Raised Skin
TTITLE11=All Life Long
EXTD=
EXTT0=
EXTT1=
EXTT2=
EXTT3=
EXTT4=
EXTT5=
EXTT6=
EXTT7=
EXTT8=
EXTT9=
EXTT10=
EXTT11=
PLAYORDER=
